{
  "accessors": [
    {
      "bufferView": 1,
      "componentType": 5126,
      "count": 2238,
      "max": [
        144.50115966796875,
        48.94264221191406,
        34.646121978759766
      ],
      "min": [
        0.004999339580535889,
        0.0072196125984191895,
        0.007715076208114624
      ],
      "type": "VEC3"
    },
    {
      "bufferView": 1,
      "byteOffset": 26856,
      "componentType": 5126,
      "count": 2238,
      "max": [
        0.9151732325553894,
        0.999910831451416,
        0.9993415474891663
      ],
      "min": [
        -0.8059388399124146,
        -0.999824047088623,
        -0.9982484579086304
      ],
      "type": "VEC3"
    },
    {
      "bufferView": 0,
      "componentType": 5125,
      "count": 8778,
      "type": "SCALAR"
    }
  ],
  "asset": {
    "extras": {
      "author": "Mei (https://sketchfab.com/410972008)",
      "license": "CC-BY-4.0 (http://creativecommons.org/licenses/by/4.0/)",
      "source": "https://sketchfab.com/3d-models/spoon-9e21771ced474b19a1420484c23ec0a5",
      "title": "Spoon"
    },
    "generator": "Sketchfab-12.66.0",
    "version": "2.0"
  },
  "bufferViews": [
    {
      "buffer": 0,
      "byteLength": 35112,
      "name": "floatBufferViews",
      "target": 34963
    },
    {
      "buffer": 0,
      "byteLength": 53712,
      "byteOffset": 35112,
      "byteStride": 12,
      "name": "floatBufferViews",
      "target": 34962
    }
  ],
  "buffers": [
    {
      "byteLength": 88824,
      "uri": "scene.bin"
    }
  ],
  "materials": [
    {
      "doubleSided": true,
      "name": "Scene_-_Root",
      "pbrMetallicRoughness": {
        "baseColorFactor": [
          0.6109670344615142,
          0.6109670344615142,
          0.6109670344615142,
          1.0
        ],
        "roughnessFactor": 0.2120958087355571
      }
    }
  ],
  "meshes": [
    {
      "name": "Object_0",
      "primitives": [
        {
          "attributes": {
            "NORMAL": 1,
            "POSITION": 0
          },
          "indices": 2,
          "material": 0,
          "mode": 4
        }
      ]
    }
  ],
  "nodes": [
    {
      "children": [
        1
      ],
      "matrix": [
        1.0,
        0.0,
        0.0,
        0.0,
        0.0,
        2.220446049250313e-16,
        -1.0,
        0.0,
        0.0,
        1.0,
        2.220446049250313e-16,
        0.0,
        0.0,
        0.0,
        0.0,
        1.0
      ],
      "name": "Sketchfab_model"
    },
    {
      "children": [
        2
      ],
      "name": "777c7e560383407a91b35e2b1d58d873.stl.cleaner.materialmerger.gles"
    },
    {
      "mesh": 0,
      "name": "Object_2"
    }
  ],
  "scene": 0,
  "scenes": [
    {
      "name": "Sketchfab_Scene",
      "nodes": [
        0
      ]
    }
  ]
}
